<?xml version="1.0" encoding="UTF-8" standalone="no"?>
<svg
   height="36"
   viewBox="0 0 48.868019 18"
   width="97.736038"
   fill="#000000"
   version="1.1"
   id="svg8285"
   sodipodi:docname="logo.svg"
   inkscape:version="1.1.2 (b8e25be8, 2022-02-05)"
   xmlns:inkscape="http://www.inkscape.org/namespaces/inkscape"
   xmlns:sodipodi="http://sodipodi.sourceforge.net/DTD/sodipodi-0.dtd"
   xmlns="http://www.w3.org/2000/svg"
   xmlns:svg="http://www.w3.org/2000/svg">
  <defs
     id="defs8289" />
  <sodipodi:namedview
     id="namedview8287"
     pagecolor="#ffffff"
     bordercolor="#666666"
     borderopacity="1.0"
     inkscape:pageshadow="2"
     inkscape:pageopacity="0.0"
     inkscape:pagecheckerboard="0"
     showgrid="false"
     inkscape:zoom="6.5104165"
     inkscape:cx="90.316802"
     inkscape:cy="19.584001"
     inkscape:window-width="1381"
     inkscape:window-height="847"
     inkscape:window-x="59"
     inkscape:window-y="25"
     inkscape:window-maximized="1"
     inkscape:current-layer="svg8285"
     fit-margin-top="0"
     fit-margin-left="0"
     fit-margin-right="0"
     fit-margin-bottom="0" />
  <path
     d="M 18,8 V 6 H 16 V 4 C 16,2.9 15.1,2 14,2 H 12 V 0 H 10 V 2 H 8 V 0 H 6 V 2 H 4 C 2.9,2 2,2.9 2,4 V 6 H 0 v 2 h 2 v 2 H 0 v 2 h 2 v 2 c 0,1.1 0.9,2 2,2 h 2 v 2 h 2 v -2 h 2 v 2 h 2 v -2 h 2 c 1.1,0 2,-0.9 2,-2 v -2 h 2 V 10 H 16 V 8 Z m -4,6 H 4 V 4 h 10 z"
     id="path8283"
     sodipodi:nodetypes="cccssccccccccssccccccccssccccccccssccccccccccc" />
  <text
     xml:space="preserve"
     style="font-style:normal;font-weight:normal;font-size:6.66667px;line-height:1.25;font-family:sans-serif;fill:#000000;fill-opacity:1;stroke:none;stroke-width:0.5"
     x="4.414875"
     y="11.399999"
     id="text9489"><tspan
       sodipodi:role="line"
       style="font-style:normal;font-variant:normal;font-weight:bold;font-stretch:normal;font-size:6.66667px;font-family:sans-serif;-inkscape-font-specification:'sans-serif Bold';stroke-width:0.5"
       x="4.414875"
       y="11.399999"
       id="tspan13177">AI   Reg.net</tspan></text>
</svg>
